<svg xmlns="http://www.w3.org/2000/svg" enable-background="new 0 0 47.5 47.5" viewBox="0 0 47.5 47.5"><defs><clipPath id="a"><path d="M 0,38 38,38 38,0 0,0 0,38 Z"/></clipPath></defs><g clip-path="url(#a)" transform="matrix(1.25 0 0 -1.25 0 47.5)"><path fill="#292f33" d="m 0,0 c 0,-2.209 -1.791,-4 -4,-4 l -10,0 c -2.209,0 -4,1.791 -4,4 l 0,28 c 0,2.209 1.791,4 4,4 l 10,0 c 2.209,0 4,-1.791 4,-4 L 0,0 Z" transform="translate(28 5)"/><path fill="#77b255" d="m 0,0 c 2.209,0 4,-1.791 4,-4 0,-2.209 -1.791,-4 -4,-4 -2.209,0 -4,1.791 -4,4 0,2.209 1.791,4 4,4" transform="translate(18.998 12)"/><path fill="#ffcc4d" d="m 0,0 c 2.209,0 4,-1.791 4,-4 0,-2.209 -1.791,-4 -4,-4 -2.209,0 -4,1.791 -4,4 0,2.209 1.791,4 4,4" transform="translate(18.998 23)"/><path fill="#dd2e44" d="m 0,0 c 2.209,0 4,-1.791 4,-4 0,-2.209 -1.791,-4 -4,-4 -2.209,0 -4,1.791 -4,4 0,2.209 1.791,4 4,4" transform="translate(18.998 34)"/></g></svg>